<?xml version="1.0" encoding="UTF-8"?>
<svg version="1.1" xmlns="http://www.w3.org/2000/svg" width="640" height="640">
<path d="M0 0 C1.69113922 0.00456207 1.69113922 0.00456207 3.41644287 0.00921631 C21.69861837 0.08181968 39.39104306 0.96389726 57.375 4.4375 C58.48794434 4.65180664 59.60088867 4.86611328 60.74755859 5.08691406 C116.67267488 16.26055225 168.86486327 41.30552722 211.375 79.4375 C211.8911084 79.89721191 212.4072168 80.35692383 212.93896484 80.83056641 C223.37202592 90.14662569 233.47999894 99.71460063 242.18359375 110.69140625 C244.41041838 113.48188346 246.73085502 116.17180834 249.0625 118.875 C264.59423275 137.56123971 277.05776782 158.57831278 287.45263672 180.49804688 C288.06322846 181.78193804 288.68195282 183.06199574 289.30908203 184.33789062 C300.96035415 208.11009855 308.72873516 234.44710219 313.375 260.4375 C313.68606689 262.09797363 313.68606689 262.09797363 314.00341797 263.79199219 C320.42371466 299.3294763 320.01892645 337.97225161 313.375 373.4375 C313.17664551 374.54706055 312.97829102 375.65662109 312.77392578 376.79980469 C308.08753192 402.36805375 299.87516981 428.09926878 288.375 451.4375 C287.72370058 452.79284492 287.07266217 454.14831529 286.421875 455.50390625 C267.76501393 493.93215823 240.82121694 531.52500316 207.12109375 558.24609375 C204.33061654 560.47291838 201.64069166 562.79335502 198.9375 565.125 C184.24655599 577.33590063 168.18557968 587.42732481 151.375 596.4375 C150.50149902 596.90784668 149.62799805 597.37819336 148.72802734 597.86279297 C103.08858636 622.18983262 52.34268935 634.17302423 0.75 633.875 C-0.94113922 633.87043793 -0.94113922 633.87043793 -2.66644287 633.86578369 C-20.94861837 633.79318032 -38.64104306 632.91110274 -56.625 629.4375 C-57.73794434 629.22319336 -58.85088867 629.00888672 -59.99755859 628.78808594 C-115.92267488 617.61444775 -168.11486327 592.56947278 -210.625 554.4375 C-211.3991626 553.74793213 -211.3991626 553.74793213 -212.18896484 553.04443359 C-222.62202592 543.72837431 -232.72999894 534.16039937 -241.43359375 523.18359375 C-243.66041838 520.39311654 -245.98085502 517.70319166 -248.3125 515 C-263.84423275 496.31376029 -276.30776782 475.29668722 -286.70263672 453.37695312 C-287.31322846 452.09306196 -287.93195282 450.81300426 -288.55908203 449.53710938 C-300.21035415 425.76490145 -307.97873516 399.42789781 -312.625 373.4375 C-312.83237793 372.33051758 -313.03975586 371.22353516 -313.25341797 370.08300781 C-319.67371466 334.5455237 -319.26892645 295.90274839 -312.625 260.4375 C-312.42664551 259.32793945 -312.22829102 258.21837891 -312.02392578 257.07519531 C-307.33753192 231.50694625 -299.12516981 205.77573122 -287.625 182.4375 C-286.97370058 181.08215508 -286.32266217 179.72668471 -285.671875 178.37109375 C-267.01501393 139.94284177 -240.07121694 102.34999684 -206.37109375 75.62890625 C-203.58061654 73.40208162 -200.89069166 71.08164498 -198.1875 68.75 C-183.49655599 56.53909937 -167.43557968 46.44767519 -150.625 37.4375 C-149.75149902 36.96715332 -148.87799805 36.49680664 -147.97802734 36.01220703 C-102.33858636 11.68516738 -51.59268935 -0.29802423 0 0 Z " fill="#037C42" transform="translate(319.625,3.5625)"/>
<path d="M0 0 C0 197.01 0 394.02 0 597 C-38.33356712 589.33328658 -76.40377425 561.65107021 -105 536 C-105.7741626 535.31043213 -105.7741626 535.31043213 -106.56396484 534.60693359 C-116.99702592 525.29087431 -127.10499894 515.72289937 -135.80859375 504.74609375 C-138.03541838 501.95561654 -140.35585502 499.26569166 -142.6875 496.5625 C-158.21923275 477.87626029 -170.68276782 456.85918722 -181.07763672 434.93945312 C-181.68822846 433.65556196 -182.30695282 432.37550426 -182.93408203 431.09960938 C-194.58535415 407.32740145 -202.35373516 380.99039781 -207 355 C-207.20737793 353.89301758 -207.41475586 352.78603516 -207.62841797 351.64550781 C-214.04871466 316.1080237 -213.64392645 277.46524839 -207 242 C-206.80164551 240.89043945 -206.60329102 239.78087891 -206.39892578 238.63769531 C-201.71253192 213.06944625 -193.50016981 187.33823122 -182 164 C-181.34870058 162.64465508 -180.69766217 161.28918471 -180.046875 159.93359375 C-161.39001393 121.50534177 -134.44621694 83.91249684 -100.74609375 57.19140625 C-97.95561654 54.96458162 -95.26569166 52.64414498 -92.5625 50.3125 C-71.16093384 32.52382709 -29.08939102 0 0 0 Z " fill="#056030" transform="translate(214,22)"/>
<path d="M0 0 C9.75931553 3.65974332 19.07778081 7.20223286 28.375 11.75 C29.44153809 12.26804199 30.50807617 12.78608398 31.60693359 13.31982422 C69.83068903 32.05583405 107.15434931 58.63808813 133.80859375 92.25390625 C136.03541838 95.04438346 138.35585502 97.73430834 140.6875 100.4375 C156.21923275 119.12373971 168.68276782 140.14081278 179.07763672 162.06054688 C179.68822846 163.34443804 180.30695282 164.62449574 180.93408203 165.90039062 C192.58535415 189.67259855 200.35373516 216.00960219 205 242 C205.20737793 243.10698242 205.41475586 244.21396484 205.62841797 245.35449219 C212.04871466 280.8919763 211.64392645 319.53475161 205 355 C204.80164551 356.10956055 204.60329102 357.21912109 204.39892578 358.36230469 C199.71253192 383.93055375 191.50016981 409.66176878 180 433 C179.34870058 434.35534492 178.69766217 435.71081529 178.046875 437.06640625 C159.39001393 475.49465823 132.44621694 513.08750316 98.74609375 539.80859375 C95.95561654 542.03541838 93.26569166 544.35585502 90.5625 546.6875 C72.64301445 561.58191776 52.6858565 573.16977209 32 583.75 C31.20803223 584.16145264 30.41606445 584.57290527 29.60009766 584.99682617 C19.97203766 589.81085617 10.19712503 593.11538094 0 597 C0 399.99 0 202.98 0 0 Z " fill="#1DAF65" transform="translate(428,22)"/>
<path d="M0 0 C29.12881061 0 29.12881061 0 40.4375 1.625 C41.73042969 1.80248779 43.02335937 1.97997559 44.35546875 2.1628418 C64.58455242 5.03247557 88.55432642 8.77716321 107 18 C107 215.01 107 412.02 107 615 C82.39591734 623.20136089 82.39591734 623.20136089 73.8125 625.1875 C72.28290649 625.54847778 72.28290649 625.54847778 70.72241211 625.91674805 C47.09851539 631.30698927 24.34914808 633 0 633 C0 424.11 0 215.22 0 0 Z " fill="#009B4D" transform="translate(321,4)"/>
<path d="M0 0 C0 154.77 0 309.54 0 469 C-3.5409579 467.22952105 -5.2916984 465.96484798 -8.01171875 463.25390625 C-8.76517578 462.50447754 -9.51863281 461.75504883 -10.29492188 460.98291016 C-11.08447266 460.1841748 -11.87402344 459.38543945 -12.6875 458.5625 C-13.90469727 457.33732666 -13.90469727 457.33732666 -15.14648438 456.08740234 C-20.06052946 451.0952781 -24.71063796 446.06087434 -29.01953125 440.53515625 C-31.15789936 437.79787637 -33.41716569 435.19111573 -35.6875 432.5625 C-51.21923275 413.87626029 -63.68276782 392.85918722 -74.07763672 370.93945312 C-74.68822846 369.65556196 -75.30695282 368.37550426 -75.93408203 367.09960938 C-87.58535415 343.32740145 -95.35373516 316.99039781 -100 291 C-100.20737793 289.89301758 -100.41475586 288.78603516 -100.62841797 287.64550781 C-107.04871466 252.1080237 -106.64392645 213.46524839 -100 178 C-99.80164551 176.89043945 -99.60329102 175.78087891 -99.39892578 174.63769531 C-94.71253192 149.06944625 -86.50016981 123.33823122 -75 100 C-74.34870058 98.64465508 -73.69766217 97.28918471 -73.046875 95.93359375 C-56.48892199 61.82854317 -33.98774827 32.19263619 -7.4375 5.25 C-6.92453369 4.72398193 -6.41156738 4.19796387 -5.88305664 3.65600586 C-2.2356517 0 -2.2356517 0 0 0 Z " fill="#034A2A" transform="translate(107,86)"/>
<path d="M0 0 C4.62553649 3.96474556 9.08444034 7.89037282 13.375 12.1875 C13.93807861 12.75138428 14.50115723 13.31526855 15.08129883 13.89624023 C19.27732602 18.1533136 23.13424998 22.5984266 26.84375 27.2890625 C29.05606347 30.0704856 31.36608462 32.74676854 33.6875 35.4375 C49.21923275 54.12373971 61.68276782 75.14081278 72.07763672 97.06054688 C72.68822846 98.34443804 73.30695282 99.62449574 73.93408203 100.90039062 C85.58535415 124.67259855 93.35373516 151.00960219 98 177 C98.20737793 178.10698242 98.41475586 179.21396484 98.62841797 180.35449219 C105.04871466 215.8919763 104.64392645 254.53475161 98 290 C97.80164551 291.10956055 97.60329102 292.21912109 97.39892578 293.36230469 C92.71253192 318.93055375 84.50016981 344.66176878 73 368 C72.34870058 369.35534492 71.69766217 370.71081529 71.046875 372.06640625 C53.77127276 407.64962646 29.88528961 439.92670273 1 467 C0.67 467 0.34 467 0 467 C0 312.89 0 158.78 0 0 Z " fill="#42B981" transform="translate(535,87)"/>
</svg>
